<?xml version="1.0" encoding="UTF-8"?>
<svg version="1.1" xmlns="http://www.w3.org/2000/svg" width="102" height="95">
<path d="M0 0 C3.92168961 -0.28476824 5.73944627 0.09650084 8.7421875 2.6328125 C9.41636719 3.19226563 10.09054688 3.75171875 10.78515625 4.328125 C11.47480469 4.92109375 12.16445313 5.5140625 12.875 6.125 C13.55691406 6.69476563 14.23882812 7.26453125 14.94140625 7.8515625 C16.97287591 9.55412755 18.98635785 11.27641703 21 13 C21.67063477 13.56041992 22.34126953 14.12083984 23.03222656 14.69824219 C23.66354492 15.22836914 24.29486328 15.75849609 24.9453125 16.3046875 C25.51008301 16.77632324 26.07485352 17.24795898 26.65673828 17.73388672 C28.42554307 19.40110258 28.97556526 20.51325993 29.09765625 22.9453125 C29.06510417 24.96354167 29.03255208 26.98177083 29 29 C29.66 28.67 30.32 28.34 31 28 C36.33608984 26.93278203 38.72197035 27.17277708 43.35546875 30.171875 C46.42856866 32.52549606 49.3700854 35.02762338 52.29736328 37.55908203 C55.5087295 40.27681697 58.93090823 42.73474359 62.3046875 45.24609375 C64 47 64 47 64 51 C59.69971249 52.05426896 55.39497853 53.08702981 51.08496094 54.10058594 C49.6210073 54.44797573 48.15840093 54.80109699 46.69726562 55.16015625 C44.59056695 55.67678535 42.47980236 56.17226382 40.3671875 56.6640625 C39.09987793 56.96779785 37.83256836 57.2715332 36.52685547 57.58447266 C31.0327366 58.2317792 27.30019638 56.56591005 23.01171875 53.2421875 C22.30917969 52.70247314 21.60664062 52.16275879 20.8828125 51.60668945 C19.79613281 50.74950317 19.79613281 50.74950317 18.6875 49.875 C17.93855469 49.29258545 17.18960938 48.7101709 16.41796875 48.11010742 C1.84905321 36.69810641 1.84905321 36.69810641 0 33 C-0.08649451 30.51900266 -0.11565054 28.06655072 -0.09765625 25.5859375 C-0.0962413 24.85629791 -0.09482635 24.12665833 -0.09336853 23.37490845 C-0.08776531 21.04156415 -0.07521235 18.70831536 -0.0625 16.375 C-0.05748541 14.79427222 -0.05292243 13.21354293 -0.04882812 11.6328125 C-0.03779484 7.75517146 -0.02052811 3.87760193 0 0 Z " fill="#0DD883" transform="translate(35,0)"/>
<path d="M0 0 C1.04090963 0.83571834 2.06535024 1.69227678 3.07421875 2.56640625 C3.62327881 3.01580566 4.17233887 3.46520508 4.73803711 3.92822266 C5.86919943 4.85693217 6.99367845 5.79384162 8.11132812 6.73876953 C9.69035428 8.06879541 11.2897239 9.36727541 12.90234375 10.65625 C15.55087853 12.78428396 18.18334511 14.916412 20.76171875 17.12890625 C21.46192139 17.66435059 22.16212402 18.19979492 22.88354492 18.75146484 C25.51707634 22.08505758 25.26496133 25.11220927 25.15234375 29.17578125 C25.14668396 29.94698303 25.14102417 30.71818481 25.13519287 31.51275635 C25.11285464 33.96877904 25.06266638 36.4233268 25.01171875 38.87890625 C24.99165029 40.54685388 24.97340012 42.21482446 24.95703125 43.8828125 C24.91299867 47.96540948 24.84399158 52.04690806 24.76171875 56.12890625 C21.38145594 55.52558995 19.47649277 54.34316221 16.86328125 52.14453125 C16.13625 51.53867188 15.40921875 50.9328125 14.66015625 50.30859375 C13.90992188 49.67179687 13.1596875 49.035 12.38671875 48.37890625 C11.64421875 47.75757813 10.90171875 47.13625 10.13671875 46.49609375 C8.68204631 45.27786983 7.23045339 44.0559576 5.78222656 42.83007812 C3.96521634 41.30024158 2.12798816 39.79925114 0.28515625 38.30078125 C-2.23828125 36.12890625 -2.23828125 36.12890625 -3.23828125 34.12890625 C-3.37243597 31.45654415 -3.28146666 28.80640137 -3.23828125 26.12890625 C-3.83253906 26.29390625 -4.42679688 26.45890625 -5.0390625 26.62890625 C-9.11063681 27.43942182 -12.03968225 27.72820575 -15.82421875 25.8359375 C-18.16228342 24.13329281 -20.40543671 22.362359 -22.609375 20.48974609 C-24.46122587 18.94265126 -26.35972609 17.46709097 -28.26953125 15.9921875 C-29.65570255 14.91372967 -31.04112423 13.83430762 -32.42578125 12.75390625 C-33.09826904 12.23030518 -33.77075684 11.7067041 -34.46362305 11.16723633 C-36.09336962 9.8676293 -37.67125524 8.50349047 -39.23828125 7.12890625 C-39.23828125 6.46890625 -39.23828125 5.80890625 -39.23828125 5.12890625 C-31.94465469 3.14156955 -24.64290593 1.17996735 -17.30078125 -0.62109375 C-15.83318359 -0.98460937 -15.83318359 -0.98460937 -14.3359375 -1.35546875 C-8.84555705 -2.26937823 -4.95401713 -2.8624538 0 0 Z " fill="#1170AB" transform="translate(39.23828125,38.87109375)"/>
<path d="M0 0 C3.83641483 1.50716297 5.85990819 3.48413488 8 7 C8.32789227 9.76146771 8.18960429 12.20333676 8 15 C8.66 14.67 9.32 14.34 10 14 C15.33608984 12.93278203 17.72197035 13.17277708 22.35546875 16.171875 C25.42856866 18.52549606 28.3700854 21.02762338 31.29736328 23.55908203 C34.5087295 26.27681697 37.93090823 28.73474359 41.3046875 31.24609375 C43 33 43 33 43 37 C38.69971249 38.05426896 34.39497853 39.08702981 30.08496094 40.10058594 C28.6210073 40.44797573 27.15840093 40.80109699 25.69726562 41.16015625 C23.59056695 41.67678535 21.47980236 42.17226382 19.3671875 42.6640625 C18.09987793 42.96779785 16.83256836 43.2715332 15.52685547 43.58447266 C11.63449147 44.04306351 9.53771165 43.62306577 6 42 C3.125 39.375 3.125 39.375 1 37 C2.65 37.33 4.3 37.66 6 38 C6.33 30.41 6.66 22.82 7 15 C6.34 15 5.68 15 5 15 C4.83564453 13.87851562 4.83564453 13.87851562 4.66796875 12.734375 C4.50941406 11.74953125 4.35085937 10.7646875 4.1875 9.75 C3.96126953 8.28820312 3.96126953 8.28820312 3.73046875 6.796875 C2.96781736 3.87677662 1.96225899 2.25794185 0 0 Z " fill="#05EECD" transform="translate(56,14)"/>
<path d="M0 0 C2.5 2 2.5 2 4 4 C3.34 4 2.68 4 2 4 C1.67 14.56 1.34 25.12 1 36 C0.67 36 0.34 36 0 36 C0 33.36 0 30.72 0 28 C-0.59425781 28.165 -1.18851563 28.33 -1.80078125 28.5 C-5.87235556 29.31051557 -8.801401 29.5992995 -12.5859375 27.70703125 C-14.92400217 26.00438656 -17.16715546 24.23345275 -19.37109375 22.36083984 C-21.22294462 20.81374501 -23.12144484 19.33818472 -25.03125 17.86328125 C-26.4174213 16.78482342 -27.80284298 15.70540137 -29.1875 14.625 C-29.85998779 14.10139893 -30.53247559 13.57779785 -31.2253418 13.03833008 C-32.85508837 11.73872305 -34.43297399 10.37458422 -36 9 C-36 8.34 -36 7.68 -36 7 C-7.02723956 -0.89437594 -7.02723956 -0.89437594 0 0 Z " fill="#C1E4F5" transform="translate(36,37)"/>
<path d="M0 0 C3.93266461 0.538962 6.13767233 1.55163035 9.171875 4.08984375 C9.91824219 4.70923828 10.66460937 5.32863281 11.43359375 5.96679688 C12.19800781 6.61712891 12.96242188 7.26746094 13.75 7.9375 C14.52988281 8.58396484 15.30976562 9.23042969 16.11328125 9.89648438 C21.85031203 14.70062407 21.85031203 14.70062407 23 17 C19.56382292 17.83885377 16.12585663 18.67012919 12.6875 19.5 C11.71103516 19.73847656 10.73457031 19.97695313 9.72851562 20.22265625 C8.79072266 20.44824219 7.85292969 20.67382812 6.88671875 20.90625 C6.02264404 21.11572266 5.15856934 21.32519531 4.26831055 21.54101562 C2 22 2 22 -1 22 C-1.02895225 18.70835171 -1.0467823 15.41673601 -1.0625 12.125 C-1.07506836 10.71927734 -1.07506836 10.71927734 -1.08789062 9.28515625 C-1.09111328 8.38925781 -1.09433594 7.49335937 -1.09765625 6.5703125 C-1.10289307 5.74289551 -1.10812988 4.91547852 -1.11352539 4.06298828 C-1 2 -1 2 0 0 Z " fill="#3893C6" transform="translate(38,41)"/>
<path d="M0 0 C4.07612887 -0.3218811 5.87707922 0.21314016 8.98828125 2.84375 C9.69404297 3.43027344 10.39980469 4.01679687 11.12695312 4.62109375 C11.84818359 5.24113281 12.56941406 5.86117188 13.3125 6.5 C14.05306641 7.12003906 14.79363281 7.74007813 15.55664062 8.37890625 C17.38054563 9.90863303 19.19419266 11.44899204 21 13 C19.140625 13.58203125 19.140625 13.58203125 17 14 C14.75 12.6875 14.75 12.6875 13 11 C13 10.34 13 9.68 13 9 C10.34771188 7.92474806 7.71631546 6.90543849 5 6 C5 15.9 5 25.8 5 36 C6.32 36.66 7.64 37.32 9 38 C9.66 38.33 10.32 38.66 11 39 C11 39.66 11 40.32 11 41 C11.94875 41.103125 12.8975 41.20625 13.875 41.3125 C17 42 17 42 19 45 C19 45.99 19 46.98 19 48 C20.32 48.33 21.64 48.66 23 49 C22.67 49.66 22.34 50.32 22 51 C17.85245042 49.22692255 14.51529965 46.45635004 11 43.6875 C10.07574219 42.9769043 10.07574219 42.9769043 9.1328125 42.25195312 C8.53210937 41.78080078 7.93140625 41.30964844 7.3125 40.82421875 C6.77238281 40.40229248 6.23226562 39.98036621 5.67578125 39.5456543 C2.1744793 36.31623375 0.160096 34.26811522 -0.45410156 29.40307617 C-0.45347463 28.03287713 -0.4312491 26.66256559 -0.390625 25.29296875 C-0.38496521 24.56757401 -0.37930542 23.84217926 -0.37347412 23.09480286 C-0.35119099 20.79167992 -0.30101487 18.49014776 -0.25 16.1875 C-0.22992434 14.62046528 -0.21167543 13.05340601 -0.1953125 11.48632812 C-0.15135337 7.65694481 -0.08238623 3.82874154 0 0 Z " fill="#24CB88" transform="translate(35,0)"/>
<path d="M0 0 C3.83641483 1.50716297 5.85990819 3.48413488 8 7 C8.32789227 9.76146771 8.18960429 12.20333676 8 15 C8.66 14.67 9.32 14.34 10 14 C15.33608984 12.93278203 17.72197035 13.17277708 22.35546875 16.171875 C25.42856866 18.52549606 28.3700854 21.02762338 31.29736328 23.55908203 C34.5087295 26.27681697 37.93090823 28.73474359 41.3046875 31.24609375 C43 33 43 33 43 37 C38.69971249 38.05426896 34.39497853 39.08702981 30.08496094 40.10058594 C28.6210073 40.44797573 27.15840093 40.80109699 25.69726562 41.16015625 C23.59056695 41.67678535 21.47980236 42.17226382 19.3671875 42.6640625 C18.09987793 42.96779785 16.83256836 43.2715332 15.52685547 43.58447266 C11.70219147 44.03508723 9.50813852 43.49674281 6 42 C8 41 8 41 11.421875 41.09375 C16.89638751 41.16298503 21.96439997 39.80726739 27.25 38.5 C29.19175949 38.02733486 31.13443891 37.55842905 33.078125 37.09375 C34.35284668 36.77954102 34.35284668 36.77954102 35.65332031 36.45898438 C38 36 38 36 42 36 C38.65673952 32.58419137 35.23061902 29.37707036 31.5625 26.3125 C30.65628906 25.54550781 29.75007813 24.77851562 28.81640625 23.98828125 C25.92178019 21.94477963 23.39903262 20.9361106 20 20 C20 19.34 20 18.68 20 18 C15.71 17.67 11.42 17.34 7 17 C7 16.34 7 15.68 7 15 C6.34 15 5.68 15 5 15 C4.83564453 13.87851562 4.83564453 13.87851562 4.66796875 12.734375 C4.50941406 11.74953125 4.35085937 10.7646875 4.1875 9.75 C3.96126953 8.28820312 3.96126953 8.28820312 3.73046875 6.796875 C2.96781736 3.87677662 1.96225899 2.25794185 0 0 Z " fill="#98F6EC" transform="translate(56,14)"/>
<path d="M0 0 C4.74755859 -0.1640625 4.74755859 -0.1640625 7.01953125 1.3125 C7.90705078 2.1478125 7.90705078 2.1478125 8.8125 3 C9.41707031 3.556875 10.02164063 4.11375 10.64453125 4.6875 C11.09183594 5.120625 11.53914063 5.55375 12 6 C9 6 9 6 3 4 C3 14.56 3 25.12 3 36 C0 33 0 33 -0.34057617 29.63012695 C-0.34010247 28.2494206 -0.32322783 26.86865607 -0.29296875 25.48828125 C-0.28872391 24.76005661 -0.28447906 24.03183197 -0.28010559 23.28153992 C-0.26332733 20.95814873 -0.22567855 18.6356285 -0.1875 16.3125 C-0.17245197 14.73634066 -0.15876377 13.16016771 -0.14648438 11.58398438 C-0.11342685 7.72232123 -0.06165194 3.86130822 0 0 Z " fill="#9DECCF" transform="translate(35,0)"/>
<path d="M0 0 C1.32 0.33 2.64 0.66 4 1 C3.01 1.495 3.01 1.495 2 2 C1.67 9.59 1.34 17.18 1 25 C-1 24 -1 24 -2 21 C-2.07029121 18.42734182 -2.09370832 15.88358569 -2.0625 13.3125 C-2.05798828 12.61060547 -2.05347656 11.90871094 -2.04882812 11.18554688 C-2.03706927 9.45699462 -2.01913454 7.72848635 -2 6 C-1.34 6 -0.68 6 0 6 C0 4.02 0 2.04 0 0 Z " fill="#B2E6FE" transform="translate(36,39)"/>
<path d="M0 0 C0.33 0.66 0.66 1.32 1 2 C1.66 2 2.32 2 3 2 C3 9.92 3 17.84 3 26 C1 25 1 25 0 22 C-0.08178114 20.29983156 -0.10749501 18.59663703 -0.09765625 16.89453125 C-0.09443359 15.91162109 -0.09121094 14.92871094 -0.08789062 13.91601562 C-0.07951172 12.89185547 -0.07113281 11.86769531 -0.0625 10.8125 C-0.05798828 9.77673828 -0.05347656 8.74097656 -0.04882812 7.67382812 C-0.0370401 5.11582734 -0.02058515 2.55794267 0 0 Z " fill="#08D793" transform="translate(60,27)"/>
<path d="M0 0 C3.37462715 0.54723683 5.08235 1.0549 8 3 C8 3.66 8 4.32 8 5 C9.423125 5.1546875 9.423125 5.1546875 10.875 5.3125 C14 6 14 6 16 9 C16 9.99 16 10.98 16 12 C17.32 12.33 18.64 12.66 20 13 C19.67 13.66 19.34 14.32 19 15 C14.80340329 13.02243194 11.43239474 10.36775694 7.8125 7.5 C7.17119141 7.00113281 6.52988281 6.50226562 5.86914062 5.98828125 C1.1258915 2.25178299 1.1258915 2.25178299 0 0 Z " fill="#56D6A8" transform="translate(38,36)"/>
<path d="M0 0 C0.94875 0.350625 1.8975 0.70125 2.875 1.0625 C5.87060172 2.35026777 5.87060172 2.35026777 8 1 C9.52148326 0.91627341 11.04655778 0.89269973 12.5703125 0.90234375 C13.46621094 0.90556641 14.36210938 0.90878906 15.28515625 0.91210938 C16.22230469 0.92048828 17.15945312 0.92886719 18.125 0.9375 C19.06988281 0.94201172 20.01476562 0.94652344 20.98828125 0.95117188 C23.32558387 0.96297643 25.66276061 0.97944241 28 1 C28 1.33 28 1.66 28 2 C8.94366197 6.88028169 8.94366197 6.88028169 2 3 C1.34 2.01 0.68 1.02 0 0 Z " fill="#38DEC3" transform="translate(57,51)"/>
<path d="M0 0 C-3.6678852 1.96189209 -6.87248551 3.39301257 -11 4 C-11.69159401 5.84725052 -11.69159401 5.84725052 -12 8 C-11.01 9.485 -11.01 9.485 -10 11 C-13.43752007 9.4722133 -16.18953688 7.49818944 -19 5 C-19 4.34 -19 3.68 -19 3 C-16.586238 2.30048937 -14.16989766 1.61516081 -11.75 0.9375 C-11.06808594 0.73833984 -10.38617188 0.53917969 -9.68359375 0.33398438 C-3.41657839 -1.40009269 -3.41657839 -1.40009269 0 0 Z " fill="#D8EAF2" transform="translate(19,41)"/>
<path d="M0 0 C7.13330696 2.20792835 12.43875597 5.10080883 18 10 C16.25 10.6875 16.25 10.6875 14 11 C11.75 9.6875 11.75 9.6875 10 8 C10 7.34 10 6.68 10 6 C9.278125 5.71125 8.55625 5.4225 7.8125 5.125 C5.20833333 4.08333333 2.60416667 3.04166667 0 2 C0 4.97 0 7.94 0 11 C-0.33 11 -0.66 11 -1 11 C-1.02688151 9.35425434 -1.04634123 7.70838587 -1.0625 6.0625 C-1.07410156 5.14597656 -1.08570313 4.22945313 -1.09765625 3.28515625 C-1 1 -1 1 0 0 Z " fill="#2EC78B" transform="translate(38,3)"/>
<path d="M0 0 C3.4777493 1.56011183 6.27224027 3.63172326 9.25 6 C10.14203125 6.70125 11.0340625 7.4025 11.953125 8.125 C12.62859375 8.74375 13.3040625 9.3625 14 10 C14 10.66 14 11.32 14 12 C12.58622218 12.36552803 11.16879424 12.71695495 9.75 13.0625 C8.96109375 13.25972656 8.1721875 13.45695312 7.359375 13.66015625 C5 14 5 14 1 13 C5.95 12.01 5.95 12.01 11 11 C9.61299727 8.22599454 7.65738286 7.57027169 5 6 C2.1875 3.9375 2.1875 3.9375 0 2 C0 1.34 0 0.68 0 0 Z " fill="#37DBC6" transform="translate(84,38)"/>
<path d="M0 0 C0.33 0 0.66 0 1 0 C1 3.96 1 7.92 1 12 C-6.57142857 9.14285714 -6.57142857 9.14285714 -9 5 C-6.23723823 5.52268466 -3.6739124 6.10869587 -1 7 C-0.67 4.69 -0.34 2.38 0 0 Z " fill="#4481A3" transform="translate(62,82)"/>
<path d="M0 0 C0.33 0.66 0.66 1.32 1 2 C2.32407669 2.68486725 3.65909241 3.34870203 5 4 C8.78772112 6.38085328 8.78772112 6.38085328 9.75 9.1875 C9.87375 10.0846875 9.87375 10.0846875 10 11 C7.00779732 9.63629701 4.70973471 8.05091917 2.25 5.875 C1.63640625 5.33617188 1.0228125 4.79734375 0.390625 4.2421875 C-0.06828125 3.83226563 -0.5271875 3.42234375 -1 3 C-0.67 2.01 -0.34 1.02 0 0 Z " fill="#5B97B3" transform="translate(38,72)"/>
<path d="M0 0 C2.89104992 1.29598789 5.03018393 2.49296136 7 5 C7.29296875 7.48046875 7.29296875 7.48046875 7.1875 10.1875 C7.16042969 11.08855469 7.13335937 11.98960938 7.10546875 12.91796875 C7.07066406 13.60503906 7.03585938 14.29210938 7 15 C6.34 15 5.68 15 5 15 C4.83564453 13.87851562 4.83564453 13.87851562 4.66796875 12.734375 C4.50941406 11.74953125 4.35085937 10.7646875 4.1875 9.75 C3.96126953 8.28820312 3.96126953 8.28820312 3.73046875 6.796875 C2.96781736 3.87677662 1.96225899 2.25794185 0 0 Z " fill="#69D5AE" transform="translate(56,14)"/>
<path d="M0 0 C2.04795423 1.9626228 2.94976638 3.4277307 3.19921875 6.26953125 C3.18858877 8.51954383 3.12958525 10.75385562 3 13 C2.67 13 2.34 13 2 13 C2 10.36 2 7.72 2 5 C-1.3 5.33 -4.6 5.66 -8 6 C-8 5.34 -8 4.68 -8 4 C-6.865625 3.71125 -5.73125 3.4225 -4.5625 3.125 C-3.386875 2.75375 -2.21125 2.3825 -1 2 C-0.67 1.34 -0.34 0.68 0 0 Z " fill="#CCE9F6" transform="translate(34,60)"/>
<path d="M0 0 C1.32 0.33 2.64 0.66 4 1 C3.01 1.495 3.01 1.495 2 2 C1.67 9.59 1.34 17.18 1 25 C0.67 25 0.34 25 0 25 C0 16.75 0 8.5 0 0 Z " fill="#8DC9E9" transform="translate(36,39)"/>
<path d="M0 0 C1.32 0.66 2.64 1.32 4 2 C4 2.66 4 3.32 4 4 C3.01 4 2.02 4 1 4 C0.67 9.94 0.34 15.88 0 22 C-0.33 22 -0.66 22 -1 22 C-1.02895225 18.70835171 -1.0467823 15.41673601 -1.0625 12.125 C-1.07506836 10.71927734 -1.07506836 10.71927734 -1.08789062 9.28515625 C-1.09111328 8.38925781 -1.09433594 7.49335937 -1.09765625 6.5703125 C-1.10289307 5.74289551 -1.10812988 4.91547852 -1.11352539 4.06298828 C-1 2 -1 2 0 0 Z " fill="#408CB4" transform="translate(38,41)"/>
<path d="M0 0 C3.52238047 1.56367357 6.27123994 3.69495889 9.25 6.125 C10.14203125 6.84945312 11.0340625 7.57390625 11.953125 8.3203125 C12.62859375 8.87460937 13.3040625 9.42890625 14 10 C13.01 10.495 13.01 10.495 12 11 C8.26415094 9.52830189 8.26415094 9.52830189 7 7 C6.195625 6.54625 5.39125 6.0925 4.5625 5.625 C1.87592252 3.92131672 1.10510897 2.91346909 0 0 Z " fill="#90C1D6" transform="translate(40,41)"/>
<path d="M0 0 C5.03985731 0.44469329 7.37634988 2.71343362 11 6 C7.61976483 6 5.16531063 5.12544378 2 4 C1.34 4.66 0.68 5.32 0 6 C0 4.02 0 2.04 0 0 Z " fill="#7FDFBE" transform="translate(36,0)"/>
<path d="M0 0 C0.99 0.33 1.98 0.66 3 1 C3 1.66 3 2.32 3 3 C-2.82254243 4.96818336 -7.83381819 6.40214229 -14 6 C-14 5.67 -14 5.34 -14 5 C-9.07262981 3.02905192 -5.21979128 2.8200072 0 3 C0 2.01 0 1.02 0 0 Z " fill="#16E7C9" transform="translate(92,46)"/>
<path d="M0 0 C3.37462715 0.54723683 5.08235 1.0549 8 3 C9.1875 5.625 9.1875 5.625 10 8 C6.05205855 6.32971708 3.18203882 3.8204435 0 1 C0 0.67 0 0.34 0 0 Z " fill="#7AE0BF" transform="translate(38,36)"/>
<path d="M0 0 C3.81684226 1.55500981 6.19195732 4.03595495 9 7 C5.62537285 6.45276317 3.91765 5.9451 1 4 C0.3125 1.875 0.3125 1.875 0 0 Z " fill="#83E2C0" transform="translate(47,7)"/>
<path d="M0 0 C0.99 0.33 1.98 0.66 3 1 C3 1.66 3 2.32 3 3 C1.58622218 3.36552803 0.16879424 3.71695495 -1.25 4.0625 C-2.03890625 4.25972656 -2.8278125 4.45695312 -3.640625 4.66015625 C-6 5 -6 5 -10 4 C-6.7 3.34 -3.4 2.68 0 2 C0 1.34 0 0.68 0 0 Z " fill="#43D3C1" transform="translate(95,47)"/>
<path d="M0 0 C2.78211944 0.37596209 4.5879284 0.67318459 6.8125 2.4375 C8 4 8 4 8 6 C5.5625 5.1875 5.5625 5.1875 3 4 C2.67 3.01 2.34 2.02 2 1 C1.34 0.67 0.68 0.34 0 0 Z " fill="#34C98C" transform="translate(52,14)"/>
<path d="M0 0 C1.875 0.25 1.875 0.25 4 1 C5.25 3.0625 5.25 3.0625 6 5 C4.35 4.67 2.7 4.34 1 4 C0.67 2.68 0.34 1.36 0 0 Z " fill="#69E7DA" transform="translate(75,30)"/>
</svg>

